<svg width="50" height="50" viewBox="0 0 50 50" fill="none" xmlns="http://www.w3.org/2000/svg">
<g clip-path="url(#clip0_35_8936)">
<circle cx="25" cy="25" r="24" stroke="#FFBC57" stroke-width="2"/>
<path d="M29.9342 19.8393C29.8436 19.6212 29.6702 19.4478 29.452 19.3572C29.3447 19.3114 29.2294 19.2872 29.1127 19.2858H20.1842C19.9474 19.2858 19.7203 19.3798 19.5528 19.5473C19.3854 19.7147 19.2913 19.9418 19.2913 20.1786C19.2913 20.4154 19.3854 20.6425 19.5528 20.81C19.7203 20.9774 19.9474 21.0715 20.1842 21.0715H26.961L19.5502 28.4733C19.4666 28.5563 19.4001 28.655 19.3548 28.7638C19.3095 28.8726 19.2861 28.9893 19.2861 29.1072C19.2861 29.2251 19.3095 29.3418 19.3548 29.4506C19.4001 29.5594 19.4666 29.6581 19.5502 29.7411C19.6332 29.8248 19.732 29.8912 19.8408 29.9366C19.9496 29.9819 20.0663 30.0052 20.1842 30.0052C20.302 30.0052 20.4187 29.9819 20.5275 29.9366C20.6363 29.8912 20.7351 29.8248 20.8181 29.7411L28.2199 22.3304V29.1072C28.2199 29.344 28.3139 29.5711 28.4814 29.7385C28.6488 29.906 28.8759 30.0001 29.1127 30.0001C29.3495 30.0001 29.5766 29.906 29.7441 29.7385C29.9115 29.5711 30.0056 29.344 30.0056 29.1072V20.1786C30.0042 20.0619 29.9799 19.9467 29.9342 19.8393Z" fill="#FFBC57"/>
</g>
<defs>
<clipPath id="clip0_35_8936">
<rect width="50" height="50" fill="white"/>
</clipPath>
</defs>
</svg>
